<svg preserveAspectRatio="none" overflow="visible" style="display: block;" width="111.86" height="16.3974" viewBox="0 0 111.86 16.3974" fill="none" xmlns="http://www.w3.org/2000/svg">
<g id="Group 59">
<path id="Vector" d="M96.8862 16.1732C96.5557 16.1732 96.3511 15.8132 96.5202 15.5293L101.024 7.96495L96.886 0.86561C96.7205 0.581627 96.9254 0.225117 97.2541 0.225117H101.407C101.566 0.225117 101.711 0.313399 101.785 0.454173L104.142 4.97608L106.456 0.456955C106.529 0.314643 106.675 0.225117 106.835 0.225117H110.492C110.818 0.225117 111.023 0.575249 110.864 0.859198L106.973 7.80881L111.486 15.5323C111.652 15.8163 111.447 16.1732 111.118 16.1732H106.94C106.783 16.1732 106.639 16.0868 106.565 15.9484L103.744 10.6862L100.923 15.9484C100.849 16.0868 100.705 16.1732 100.548 16.1732H96.8862Z" fill="#303030"/>
<path id="Vector_2" d="M85.7302 16.3974C80.7951 16.3974 77.7187 13.0601 77.7187 8.27661V8.09862C77.7187 3.2484 81.2224 8.58703e-05 85.7943 8.58703e-05C90.4517 8.58703e-05 93.8913 3.04816 93.8913 7.98737V8.16536C93.8913 13.0601 90.6654 16.3974 85.7302 16.3974ZM85.8157 12.8153C87.9735 12.8153 89.3194 11.0799 89.3194 8.23211V8.05412C89.3194 5.22853 87.9521 3.55988 85.7943 3.55988C83.6365 3.55988 82.2906 5.18404 82.2906 8.07637V8.25436C82.2906 11.1467 83.7006 12.8153 85.8157 12.8153Z" fill="#303030"/>
<path id="Vector_3" d="M64.8984 16.1732C64.7149 16.1732 64.552 16.0556 64.4942 15.8814L59.4837 0.785285C59.3922 0.509551 59.5974 0.225117 59.888 0.225117H63.9134C64.1031 0.225117 64.2699 0.350532 64.3226 0.532743L67.4721 11.4222L70.6436 0.53199C70.6966 0.350155 70.8632 0.225117 71.0526 0.225117H74.4333C74.7232 0.225117 74.9284 0.508316 74.8381 0.783751L69.8911 15.8799C69.8337 16.0548 69.6704 16.1732 69.4863 16.1732H64.8984Z" fill="#303030"/>
<path id="Vector_4" d="M41.7562 16.1732C41.5209 16.1732 41.3302 15.9825 41.3302 15.7472V0.651097C41.3302 0.415835 41.5209 0.225117 41.7562 0.225117H46.1971C46.3508 0.225117 46.4926 0.307916 46.5681 0.441782L51.5172 9.21402V0.651096C51.5172 0.415834 51.7079 0.225117 51.9432 0.225117H55.0553C55.2906 0.225117 55.4813 0.415834 55.4813 0.651096V15.7472C55.4813 15.9825 55.2906 16.1732 55.0553 16.1732H51.3424C51.1902 16.1732 51.0496 16.092 50.9735 15.9601L45.3164 6.15824V15.7472C45.3164 15.9825 45.1257 16.1732 44.8905 16.1732H41.7562Z" fill="#303030"/>
<path id="Vector_5" d="M28.0037 16.3974C23.0686 16.3974 19.9921 13.0601 19.9921 8.27661V8.09862C19.9921 3.2484 23.4959 8.58703e-05 28.0678 8.58703e-05C32.7252 8.58703e-05 36.1648 3.04816 36.1648 7.98737V8.16536C36.1648 13.0601 32.9388 16.3974 28.0037 16.3974ZM28.0892 12.8153C30.2469 12.8153 31.5929 11.0799 31.5929 8.23211V8.05412C31.5929 5.22853 30.2256 3.55988 28.0678 3.55988C25.91 3.55988 24.5641 5.18404 24.5641 8.07637V8.25436C24.5641 11.1467 25.9741 12.8153 28.0892 12.8153Z" fill="#303030"/>
<path id="Vector_6" d="M8.30714 16.3973C2.73935 16.3973 0 13.1534 0 8.28752V8.10977C0 3.22169 3.4743 0 8.12897 0C12.1157 0 14.9266 1.76982 15.4698 5.64615C15.5045 5.89409 15.3072 6.1101 15.0569 6.1101H11.2055C10.9883 6.1101 10.8084 5.94554 10.7668 5.73229C10.4974 4.35066 9.62553 3.59941 8.15125 3.59941C6.1023 3.59941 4.81057 5.19914 4.81057 8.08756V8.26531C4.81057 11.1315 6.03548 12.7535 8.21806 12.7535C9.70437 12.7535 10.7889 12.0281 11.1168 10.5242C11.1625 10.3146 11.3409 10.1539 11.5555 10.1539H15.2639C15.5119 10.1539 15.7085 10.3659 15.6767 10.6118C15.1843 14.4226 12.2715 16.3973 8.30714 16.3973Z" fill="#303030"/>
</g>
</svg>
